<mxfile host="app.diagrams.net" modified="2022-05-18T19:47:41.954Z" agent="5.0 (Windows NT 10.0; Win64; x64) AppleWebKit/537.36 (KHTML, like Gecko) Chrome/101.0.4951.64 Safari/537.36 Edg/101.0.1210.47" etag="Sd7BFF5aTaaAqAjuQpuF" version="17.5.0" type="github">
  <diagram id="aAl8NGysI6btkRrHUJum" name="Page-1">
    <mxGraphModel dx="1053" dy="586" grid="1" gridSize="10" guides="1" tooltips="1" connect="1" arrows="1" fold="1" page="1" pageScale="1" pageWidth="827" pageHeight="1169" math="0" shadow="0">
      <root>
        <mxCell id="0" />
        <mxCell id="1" parent="0" />
        <mxCell id="DhozuX8DFhMgj3iLGO0W-5" value="" style="rounded=0;whiteSpace=wrap;html=1;fillColor=none;strokeColor=#000000;strokeWidth=2;" parent="1" vertex="1">
          <mxGeometry x="150" y="160" width="1130" height="680" as="geometry" />
        </mxCell>
        <mxCell id="DhozuX8DFhMgj3iLGO0W-11" value="" style="rounded=0;whiteSpace=wrap;html=1;fontSize=26;fillColor=none;strokeColor=#000000;strokeWidth=2;" parent="1" vertex="1">
          <mxGeometry x="380" y="240" width="690" height="550" as="geometry" />
        </mxCell>
        <mxCell id="DhozuX8DFhMgj3iLGO0W-6" value="&lt;span style=&quot;font-size: 26px&quot;&gt;Memory&lt;/span&gt;" style="rounded=0;whiteSpace=wrap;html=1;fillColor=none;strokeColor=#000000;strokeWidth=2;" parent="1" vertex="1">
          <mxGeometry x="150" y="921" width="1130" height="159" as="geometry" />
        </mxCell>
        <mxCell id="DhozuX8DFhMgj3iLGO0W-8" value="&lt;font style=&quot;font-size: 26px&quot;&gt;Top&lt;/font&gt;" style="text;html=1;strokeColor=none;fillColor=none;align=center;verticalAlign=middle;whiteSpace=wrap;rounded=0;" parent="1" vertex="1">
          <mxGeometry x="390" y="120" width="80" height="40" as="geometry" />
        </mxCell>
        <mxCell id="DhozuX8DFhMgj3iLGO0W-9" value="&lt;font style=&quot;font-size: 26px&quot;&gt;Single-Cycle CPU&lt;/font&gt;" style="text;html=1;strokeColor=none;fillColor=none;align=center;verticalAlign=middle;whiteSpace=wrap;rounded=0;" parent="1" vertex="1">
          <mxGeometry x="630" y="160" width="240" height="40" as="geometry" />
        </mxCell>
        <mxCell id="DhozuX8DFhMgj3iLGO0W-10" value="&lt;span style=&quot;font-family: &amp;#34;helvetica&amp;#34;&quot;&gt;Control&lt;br&gt;&amp;nbsp;&lt;/span&gt;&lt;span style=&quot;font-family: &amp;#34;helvetica&amp;#34;&quot;&gt;Logic&lt;/span&gt;" style="rounded=0;whiteSpace=wrap;html=1;fontSize=26;strokeWidth=2;fillColor=#E6E6E6;strokeColor=default;" parent="1" vertex="1">
          <mxGeometry x="190" y="240" width="150" height="550" as="geometry" />
        </mxCell>
        <mxCell id="DhozuX8DFhMgj3iLGO0W-12" value="Instruction Memory" style="rounded=0;whiteSpace=wrap;html=1;fontSize=26;fillColor=none;strokeColor=#000000;strokeWidth=2;" parent="1" vertex="1">
          <mxGeometry x="170" y="940" width="470" height="120" as="geometry" />
        </mxCell>
        <mxCell id="DhozuX8DFhMgj3iLGO0W-13" value="Data Memory" style="rounded=0;whiteSpace=wrap;html=1;fontSize=26;fillColor=none;strokeColor=#000000;strokeWidth=2;" parent="1" vertex="1">
          <mxGeometry x="786" y="940" width="444" height="120" as="geometry" />
        </mxCell>
        <mxCell id="DhozuX8DFhMgj3iLGO0W-33" value="&lt;font style=&quot;font-size: 18px&quot; color=&quot;#ff0000&quot;&gt;PC&lt;/font&gt;" style="rounded=0;whiteSpace=wrap;html=1;labelBorderColor=none;fontSize=12;fillColor=#f8cecc;strokeColor=#b85450;" parent="1" vertex="1">
          <mxGeometry x="380" y="680" width="130" height="110" as="geometry" />
        </mxCell>
        <mxCell id="DhozuX8DFhMgj3iLGO0W-72" value="&lt;font style=&quot;font-size: 18px&quot; color=&quot;#000099&quot;&gt;ImmGen&lt;/font&gt;" style="rounded=0;whiteSpace=wrap;html=1;labelBorderColor=none;fontSize=12;fillColor=#dae8fc;strokeColor=#6c8ebf;" parent="1" vertex="1">
          <mxGeometry x="380" y="240" width="220" height="90" as="geometry" />
        </mxCell>
        <mxCell id="DhozuX8DFhMgj3iLGO0W-88" value="&lt;font style=&quot;font-size: 18px&quot; color=&quot;#6600cc&quot;&gt;RegFile&lt;/font&gt;" style="rounded=0;whiteSpace=wrap;html=1;labelBorderColor=none;fontSize=18;strokeColor=#9673a6;fillColor=#E5CCFF;" parent="1" vertex="1">
          <mxGeometry x="610" y="240" width="215" height="90" as="geometry" />
        </mxCell>
        <mxCell id="DhozuX8DFhMgj3iLGO0W-107" value="&lt;font color=&quot;#a85400&quot;&gt;ALU&lt;/font&gt;" style="rounded=0;whiteSpace=wrap;html=1;labelBorderColor=none;fontSize=18;strokeColor=#d6b656;fillColor=#fff2cc;" parent="1" vertex="1">
          <mxGeometry x="550" y="584" width="236" height="75" as="geometry" />
        </mxCell>
        <mxCell id="a9uXf7C-37rBB2R2cqms-1" value="&lt;font style=&quot;font-size: 14px&quot; color=&quot;#004c99&quot;&gt;ALUSel &lt;br&gt;Decoder&lt;/font&gt;" style="rounded=0;whiteSpace=wrap;html=1;fillColor=#b1ddf0;strokeColor=#10739e;" parent="1" vertex="1">
          <mxGeometry x="210" y="585" width="117.5" height="85" as="geometry" />
        </mxCell>
        <mxCell id="b0hiGt_KXSGvF1g9S41a-4" value="&lt;font style=&quot;font-size: 18px&quot; color=&quot;#994c00&quot;&gt;Vector&lt;br&gt;Register&lt;br&gt;&lt;/font&gt;" style="rounded=0;whiteSpace=wrap;html=1;labelBorderColor=none;fontSize=18;strokeColor=#d79b00;fillColor=#ffe6cc;" parent="1" vertex="1">
          <mxGeometry x="860" y="240" width="210" height="90" as="geometry" />
        </mxCell>
        <mxCell id="b0hiGt_KXSGvF1g9S41a-6" value="&lt;font color=&quot;#3c635c&quot;&gt;Vector ALU&lt;/font&gt;" style="rounded=0;whiteSpace=wrap;html=1;labelBorderColor=none;fontSize=18;strokeColor=#67AB9F;fillColor=#9AC7BF;" parent="1" vertex="1">
          <mxGeometry x="870" y="470" width="180" height="120" as="geometry" />
        </mxCell>
        <mxCell id="b0hiGt_KXSGvF1g9S41a-12" value="&lt;span style=&quot;color: rgb(0 , 0 , 0) ; font-family: &amp;#34;helvetica&amp;#34; ; font-style: normal ; font-weight: 400 ; letter-spacing: normal ; text-align: center ; text-indent: 0px ; text-transform: none ; word-spacing: 0px ; display: inline ; float: none&quot;&gt;&lt;font style=&quot;font-size: 30px&quot;&gt;Datapath CL&lt;/font&gt;&lt;/span&gt;" style="text;whiteSpace=wrap;html=1;fontSize=40;fontColor=#3C635C;" parent="1" vertex="1">
          <mxGeometry x="570" y="735" width="240" height="50" as="geometry" />
        </mxCell>
        <mxCell id="b0hiGt_KXSGvF1g9S41a-23" style="edgeStyle=orthogonalEdgeStyle;rounded=0;orthogonalLoop=1;jettySize=auto;html=1;entryX=0.5;entryY=0;entryDx=0;entryDy=0;fontSize=40;fontColor=#3C635C;" parent="1" source="b0hiGt_KXSGvF1g9S41a-19" target="b0hiGt_KXSGvF1g9S41a-21" edge="1">
          <mxGeometry relative="1" as="geometry">
            <Array as="points">
              <mxPoint x="300" y="220" />
              <mxPoint x="645" y="220" />
            </Array>
          </mxGeometry>
        </mxCell>
        <mxCell id="b0hiGt_KXSGvF1g9S41a-19" value="&lt;span style=&quot;color: rgb(0 , 0 , 0) ; font-size: 12px&quot;&gt;RegWEn&lt;/span&gt;" style="rounded=0;whiteSpace=wrap;html=1;labelBorderColor=none;fontSize=14;fontColor=#A680B8;fillColor=none;dashed=1;dashPattern=1 1;" parent="1" vertex="1">
          <mxGeometry x="260" y="240" width="80" height="20" as="geometry" />
        </mxCell>
        <mxCell id="b0hiGt_KXSGvF1g9S41a-21" value="&lt;span style=&quot;color: rgb(0 , 0 , 0) ; font-size: 12px&quot;&gt;wen&lt;/span&gt;" style="rounded=0;whiteSpace=wrap;html=1;labelBorderColor=none;fontSize=14;fontColor=#A680B8;fillColor=none;dashed=1;dashPattern=1 1;" parent="1" vertex="1">
          <mxGeometry x="625" y="240" width="40" height="20" as="geometry" />
        </mxCell>
        <mxCell id="b0hiGt_KXSGvF1g9S41a-26" style="edgeStyle=orthogonalEdgeStyle;rounded=0;orthogonalLoop=1;jettySize=auto;html=1;fontSize=40;fontColor=#004C99;" parent="1" source="b0hiGt_KXSGvF1g9S41a-24" target="b0hiGt_KXSGvF1g9S41a-25" edge="1">
          <mxGeometry relative="1" as="geometry" />
        </mxCell>
        <mxCell id="b0hiGt_KXSGvF1g9S41a-24" value="&lt;span style=&quot;color: rgb(0 , 0 , 0) ; font-size: 12px&quot;&gt;ALUSel&lt;/span&gt;" style="rounded=0;whiteSpace=wrap;html=1;labelBorderColor=none;fontSize=14;fontColor=#A680B8;fillColor=none;dashed=1;dashPattern=1 1;" parent="1" vertex="1">
          <mxGeometry x="270" y="585" width="57.5" height="20" as="geometry" />
        </mxCell>
        <mxCell id="b0hiGt_KXSGvF1g9S41a-25" value="&lt;span style=&quot;color: rgb(0 , 0 , 0) ; font-size: 12px&quot;&gt;ALUSel&lt;/span&gt;" style="rounded=0;whiteSpace=wrap;html=1;labelBorderColor=none;fontSize=14;fontColor=#A680B8;fillColor=none;dashed=1;dashPattern=1 1;" parent="1" vertex="1">
          <mxGeometry x="550" y="585" width="57.5" height="20" as="geometry" />
        </mxCell>
        <mxCell id="b0hiGt_KXSGvF1g9S41a-119" style="edgeStyle=orthogonalEdgeStyle;rounded=0;orthogonalLoop=1;jettySize=auto;html=1;exitX=0.5;exitY=1;exitDx=0;exitDy=0;entryX=1;entryY=0.5;entryDx=0;entryDy=0;fontSize=40;fontColor=#004C99;" parent="1" source="b0hiGt_KXSGvF1g9S41a-27" target="b0hiGt_KXSGvF1g9S41a-43" edge="1">
          <mxGeometry relative="1" as="geometry" />
        </mxCell>
        <mxCell id="b0hiGt_KXSGvF1g9S41a-126" style="edgeStyle=orthogonalEdgeStyle;rounded=0;orthogonalLoop=1;jettySize=auto;html=1;fontSize=40;fontColor=#004C99;" parent="1" source="b0hiGt_KXSGvF1g9S41a-27" target="b0hiGt_KXSGvF1g9S41a-122" edge="1">
          <mxGeometry relative="1" as="geometry">
            <Array as="points">
              <mxPoint x="720" y="370" />
              <mxPoint x="720" y="370" />
            </Array>
          </mxGeometry>
        </mxCell>
        <mxCell id="F9InCecKEHfJbYSXSyen-37" style="edgeStyle=orthogonalEdgeStyle;rounded=0;orthogonalLoop=1;jettySize=auto;html=1;entryX=0;entryY=0.5;entryDx=0;entryDy=0;fontSize=40;fontColor=#004C99;" edge="1" parent="1" source="b0hiGt_KXSGvF1g9S41a-27" target="F9InCecKEHfJbYSXSyen-31">
          <mxGeometry relative="1" as="geometry">
            <Array as="points">
              <mxPoint x="720" y="390" />
            </Array>
          </mxGeometry>
        </mxCell>
        <mxCell id="b0hiGt_KXSGvF1g9S41a-27" value="&lt;font color=&quot;#000000&quot;&gt;&lt;span style=&quot;font-size: 12px&quot;&gt;rdata(1)&lt;/span&gt;&lt;/font&gt;" style="rounded=0;whiteSpace=wrap;html=1;labelBorderColor=none;fontSize=14;fontColor=#A680B8;fillColor=none;dashed=1;dashPattern=1 1;" parent="1" vertex="1">
          <mxGeometry x="690" y="310" width="60" height="20" as="geometry" />
        </mxCell>
        <mxCell id="b0hiGt_KXSGvF1g9S41a-121" style="edgeStyle=orthogonalEdgeStyle;rounded=0;orthogonalLoop=1;jettySize=auto;html=1;entryX=1;entryY=0.5;entryDx=0;entryDy=0;fontSize=40;fontColor=#004C99;" parent="1" source="b0hiGt_KXSGvF1g9S41a-28" target="b0hiGt_KXSGvF1g9S41a-42" edge="1">
          <mxGeometry relative="1" as="geometry">
            <Array as="points">
              <mxPoint x="780" y="450" />
            </Array>
          </mxGeometry>
        </mxCell>
        <mxCell id="b0hiGt_KXSGvF1g9S41a-132" style="edgeStyle=orthogonalEdgeStyle;rounded=0;orthogonalLoop=1;jettySize=auto;html=1;entryX=1;entryY=0.25;entryDx=0;entryDy=0;fontSize=40;fontColor=#004C99;" parent="1" source="b0hiGt_KXSGvF1g9S41a-28" target="b0hiGt_KXSGvF1g9S41a-128" edge="1">
          <mxGeometry relative="1" as="geometry">
            <Array as="points">
              <mxPoint x="780" y="450" />
              <mxPoint x="850" y="450" />
              <mxPoint x="850" y="602" />
            </Array>
          </mxGeometry>
        </mxCell>
        <mxCell id="b0hiGt_KXSGvF1g9S41a-28" value="&lt;font color=&quot;#000000&quot;&gt;&lt;span style=&quot;font-size: 12px&quot;&gt;rdata(0)&lt;/span&gt;&lt;/font&gt;" style="rounded=0;whiteSpace=wrap;html=1;labelBorderColor=none;fontSize=14;fontColor=#A680B8;fillColor=none;dashed=1;dashPattern=1 1;" parent="1" vertex="1">
          <mxGeometry x="750" y="310" width="60" height="20" as="geometry" />
        </mxCell>
        <mxCell id="b0hiGt_KXSGvF1g9S41a-30" value="&lt;font color=&quot;#000000&quot;&gt;&lt;span style=&quot;font-size: 12px&quot;&gt;raddr(1)&lt;/span&gt;&lt;/font&gt;" style="rounded=0;whiteSpace=wrap;html=1;labelBorderColor=none;fontSize=14;fontColor=#A680B8;fillColor=none;dashed=1;dashPattern=1 1;" parent="1" vertex="1">
          <mxGeometry x="725" y="240" width="50" height="20" as="geometry" />
        </mxCell>
        <mxCell id="b0hiGt_KXSGvF1g9S41a-31" value="&lt;font color=&quot;#000000&quot;&gt;&lt;span style=&quot;font-size: 12px&quot;&gt;raddr(0)&lt;/span&gt;&lt;/font&gt;" style="rounded=0;whiteSpace=wrap;html=1;labelBorderColor=none;fontSize=14;fontColor=#A680B8;fillColor=none;dashed=1;dashPattern=1 1;" parent="1" vertex="1">
          <mxGeometry x="775" y="240" width="50" height="20" as="geometry" />
        </mxCell>
        <mxCell id="b0hiGt_KXSGvF1g9S41a-32" value="&lt;font color=&quot;#000000&quot;&gt;&lt;span style=&quot;font-size: 12px&quot;&gt;waddr&lt;/span&gt;&lt;/font&gt;" style="rounded=0;whiteSpace=wrap;html=1;labelBorderColor=none;fontSize=14;fontColor=#A680B8;fillColor=none;dashed=1;dashPattern=1 1;" parent="1" vertex="1">
          <mxGeometry x="675" y="240" width="50" height="20" as="geometry" />
        </mxCell>
        <mxCell id="b0hiGt_KXSGvF1g9S41a-33" value="&lt;font color=&quot;#000000&quot;&gt;&lt;span style=&quot;font-size: 12px&quot;&gt;wdata&lt;/span&gt;&lt;/font&gt;" style="rounded=0;whiteSpace=wrap;html=1;labelBorderColor=none;fontSize=14;fontColor=#A680B8;fillColor=none;dashed=1;dashPattern=1 1;" parent="1" vertex="1">
          <mxGeometry x="611.25" y="310" width="50" height="20" as="geometry" />
        </mxCell>
        <mxCell id="b0hiGt_KXSGvF1g9S41a-36" value="&lt;font color=&quot;#000000&quot;&gt;&lt;span style=&quot;font-size: 12px&quot;&gt;src1&lt;/span&gt;&lt;/font&gt;" style="rounded=0;whiteSpace=wrap;html=1;labelBorderColor=none;fontSize=14;fontColor=#A680B8;fillColor=none;dashed=1;dashPattern=1 1;" parent="1" vertex="1">
          <mxGeometry x="746" y="583.5" width="40" height="75" as="geometry" />
        </mxCell>
        <mxCell id="b0hiGt_KXSGvF1g9S41a-41" value="&lt;font color=&quot;#006600&quot;&gt;BC&lt;/font&gt;" style="rounded=0;whiteSpace=wrap;html=1;labelBorderColor=none;fontSize=18;strokeColor=#82b366;fillColor=#d5e8d4;" parent="1" vertex="1">
          <mxGeometry x="380" y="390" width="130" height="70" as="geometry" />
        </mxCell>
        <mxCell id="b0hiGt_KXSGvF1g9S41a-42" value="&lt;font color=&quot;#000000&quot;&gt;&lt;span style=&quot;font-size: 12px&quot;&gt;src1&lt;/span&gt;&lt;/font&gt;" style="rounded=0;whiteSpace=wrap;html=1;labelBorderColor=none;fontSize=14;fontColor=#A680B8;fillColor=none;dashed=1;dashPattern=1 1;" parent="1" vertex="1">
          <mxGeometry x="470" y="440" width="40" height="20" as="geometry" />
        </mxCell>
        <mxCell id="b0hiGt_KXSGvF1g9S41a-43" value="&lt;font color=&quot;#000000&quot;&gt;&lt;span style=&quot;font-size: 12px&quot;&gt;src2&lt;/span&gt;&lt;/font&gt;" style="rounded=0;whiteSpace=wrap;html=1;labelBorderColor=none;fontSize=14;fontColor=#A680B8;fillColor=none;dashed=1;dashPattern=1 1;" parent="1" vertex="1">
          <mxGeometry x="470" y="390" width="40" height="20" as="geometry" />
        </mxCell>
        <mxCell id="b0hiGt_KXSGvF1g9S41a-51" style="edgeStyle=orthogonalEdgeStyle;rounded=0;orthogonalLoop=1;jettySize=auto;html=1;exitX=0;exitY=0.5;exitDx=0;exitDy=0;fontSize=40;fontColor=#004C99;" parent="1" source="b0hiGt_KXSGvF1g9S41a-44" target="b0hiGt_KXSGvF1g9S41a-48" edge="1">
          <mxGeometry relative="1" as="geometry" />
        </mxCell>
        <mxCell id="b0hiGt_KXSGvF1g9S41a-44" value="&lt;font color=&quot;#000000&quot;&gt;&lt;span style=&quot;font-size: 12px&quot;&gt;BrLT&lt;/span&gt;&lt;/font&gt;" style="rounded=0;whiteSpace=wrap;html=1;labelBorderColor=none;fontSize=14;fontColor=#A680B8;fillColor=none;dashed=1;dashPattern=1 1;" parent="1" vertex="1">
          <mxGeometry x="380" y="440" width="40" height="20" as="geometry" />
        </mxCell>
        <mxCell id="b0hiGt_KXSGvF1g9S41a-50" style="edgeStyle=orthogonalEdgeStyle;rounded=0;orthogonalLoop=1;jettySize=auto;html=1;entryX=1;entryY=0.5;entryDx=0;entryDy=0;fontSize=40;fontColor=#004C99;" parent="1" source="b0hiGt_KXSGvF1g9S41a-45" target="b0hiGt_KXSGvF1g9S41a-49" edge="1">
          <mxGeometry relative="1" as="geometry" />
        </mxCell>
        <mxCell id="b0hiGt_KXSGvF1g9S41a-45" value="&lt;font color=&quot;#000000&quot;&gt;&lt;span style=&quot;font-size: 12px&quot;&gt;BrEq&lt;/span&gt;&lt;/font&gt;" style="rounded=0;whiteSpace=wrap;html=1;labelBorderColor=none;fontSize=14;fontColor=#A680B8;fillColor=none;dashed=1;dashPattern=1 1;" parent="1" vertex="1">
          <mxGeometry x="380" y="390" width="40" height="20" as="geometry" />
        </mxCell>
        <mxCell id="b0hiGt_KXSGvF1g9S41a-48" value="&lt;font color=&quot;#000000&quot;&gt;&lt;span style=&quot;font-size: 12px&quot;&gt;BrLT&lt;/span&gt;&lt;/font&gt;" style="rounded=0;whiteSpace=wrap;html=1;labelBorderColor=none;fontSize=14;fontColor=#A680B8;fillColor=none;dashed=1;dashPattern=1 1;" parent="1" vertex="1">
          <mxGeometry x="300" y="440" width="40" height="20" as="geometry" />
        </mxCell>
        <mxCell id="b0hiGt_KXSGvF1g9S41a-49" value="&lt;font color=&quot;#000000&quot;&gt;&lt;span style=&quot;font-size: 12px&quot;&gt;BrEq&lt;/span&gt;&lt;/font&gt;" style="rounded=0;whiteSpace=wrap;html=1;labelBorderColor=none;fontSize=14;fontColor=#A680B8;fillColor=none;dashed=1;dashPattern=1 1;" parent="1" vertex="1">
          <mxGeometry x="300" y="390" width="40" height="20" as="geometry" />
        </mxCell>
        <mxCell id="b0hiGt_KXSGvF1g9S41a-53" style="edgeStyle=orthogonalEdgeStyle;rounded=0;orthogonalLoop=1;jettySize=auto;html=1;entryX=0.5;entryY=1;entryDx=0;entryDy=0;fontSize=40;fontColor=#004C99;" parent="1" source="b0hiGt_KXSGvF1g9S41a-52" target="b0hiGt_KXSGvF1g9S41a-33" edge="1">
          <mxGeometry relative="1" as="geometry" />
        </mxCell>
        <mxCell id="b0hiGt_KXSGvF1g9S41a-77" style="edgeStyle=orthogonalEdgeStyle;rounded=0;orthogonalLoop=1;jettySize=auto;html=1;exitX=0.5;exitY=1;exitDx=0;exitDy=0;entryX=1;entryY=0.5;entryDx=0;entryDy=0;fontSize=40;fontColor=#004C99;" parent="1" source="b0hiGt_KXSGvF1g9S41a-52" target="b0hiGt_KXSGvF1g9S41a-76" edge="1">
          <mxGeometry relative="1" as="geometry" />
        </mxCell>
        <mxCell id="b0hiGt_KXSGvF1g9S41a-156" style="edgeStyle=orthogonalEdgeStyle;rounded=0;orthogonalLoop=1;jettySize=auto;html=1;entryX=0.5;entryY=0;entryDx=0;entryDy=0;fontSize=40;fontColor=#004C99;" parent="1" source="b0hiGt_KXSGvF1g9S41a-52" target="b0hiGt_KXSGvF1g9S41a-148" edge="1">
          <mxGeometry relative="1" as="geometry">
            <Array as="points">
              <mxPoint x="636" y="690" />
              <mxPoint x="1060" y="690" />
            </Array>
          </mxGeometry>
        </mxCell>
        <mxCell id="F9InCecKEHfJbYSXSyen-1" style="edgeStyle=orthogonalEdgeStyle;rounded=0;orthogonalLoop=1;jettySize=auto;html=1;entryX=0.5;entryY=0;entryDx=0;entryDy=0;fontSize=40;fontColor=#004C99;" edge="1" parent="1" source="b0hiGt_KXSGvF1g9S41a-52" target="b0hiGt_KXSGvF1g9S41a-152">
          <mxGeometry relative="1" as="geometry">
            <Array as="points">
              <mxPoint x="636" y="690" />
              <mxPoint x="829" y="690" />
            </Array>
          </mxGeometry>
        </mxCell>
        <mxCell id="F9InCecKEHfJbYSXSyen-2" style="edgeStyle=orthogonalEdgeStyle;rounded=0;orthogonalLoop=1;jettySize=auto;html=1;fontSize=40;fontColor=#004C99;" edge="1" parent="1" source="b0hiGt_KXSGvF1g9S41a-52" target="b0hiGt_KXSGvF1g9S41a-163">
          <mxGeometry relative="1" as="geometry">
            <mxPoint x="1020" y="800" as="targetPoint" />
            <Array as="points">
              <mxPoint x="636" y="690" />
              <mxPoint x="1020" y="690" />
            </Array>
          </mxGeometry>
        </mxCell>
        <mxCell id="F9InCecKEHfJbYSXSyen-77" style="edgeStyle=orthogonalEdgeStyle;rounded=0;orthogonalLoop=1;jettySize=auto;html=1;fontSize=12;fontColor=#004C99;entryX=0.5;entryY=0;entryDx=0;entryDy=0;" edge="1" parent="1" source="b0hiGt_KXSGvF1g9S41a-52" target="F9InCecKEHfJbYSXSyen-74">
          <mxGeometry relative="1" as="geometry">
            <Array as="points">
              <mxPoint x="636" y="690" />
              <mxPoint x="1060" y="690" />
              <mxPoint x="1060" y="810" />
              <mxPoint x="1105" y="810" />
            </Array>
          </mxGeometry>
        </mxCell>
        <mxCell id="b0hiGt_KXSGvF1g9S41a-52" value="&lt;font color=&quot;#000000&quot;&gt;&lt;span style=&quot;font-size: 12px&quot;&gt;out&lt;/span&gt;&lt;/font&gt;" style="rounded=0;whiteSpace=wrap;html=1;labelBorderColor=none;fontSize=14;fontColor=#A680B8;fillColor=none;dashed=1;dashPattern=1 1;" parent="1" vertex="1">
          <mxGeometry x="625" y="584" width="22.5" height="75" as="geometry" />
        </mxCell>
        <mxCell id="b0hiGt_KXSGvF1g9S41a-56" style="edgeStyle=orthogonalEdgeStyle;rounded=0;orthogonalLoop=1;jettySize=auto;html=1;fontSize=40;fontColor=#004C99;" parent="1" source="b0hiGt_KXSGvF1g9S41a-54" target="b0hiGt_KXSGvF1g9S41a-55" edge="1">
          <mxGeometry relative="1" as="geometry" />
        </mxCell>
        <mxCell id="b0hiGt_KXSGvF1g9S41a-54" value="&lt;font color=&quot;#000000&quot; style=&quot;font-size: 12px&quot;&gt;ImmSel&lt;/font&gt;" style="rounded=0;whiteSpace=wrap;html=1;labelBorderColor=none;fontSize=14;fontColor=#A680B8;fillColor=none;dashed=1;dashPattern=1 1;" parent="1" vertex="1">
          <mxGeometry x="260" y="280" width="80" height="20" as="geometry" />
        </mxCell>
        <mxCell id="b0hiGt_KXSGvF1g9S41a-55" value="&lt;font color=&quot;#000000&quot; style=&quot;font-size: 12px&quot;&gt;ImmSel&lt;/font&gt;" style="rounded=0;whiteSpace=wrap;html=1;labelBorderColor=none;fontSize=14;fontColor=#A680B8;fillColor=none;dashed=1;dashPattern=1 1;" parent="1" vertex="1">
          <mxGeometry x="380" y="280" width="70" height="20" as="geometry" />
        </mxCell>
        <mxCell id="b0hiGt_KXSGvF1g9S41a-127" style="edgeStyle=orthogonalEdgeStyle;rounded=0;orthogonalLoop=1;jettySize=auto;html=1;entryX=0.25;entryY=0;entryDx=0;entryDy=0;fontSize=40;fontColor=#004C99;" parent="1" source="b0hiGt_KXSGvF1g9S41a-57" target="b0hiGt_KXSGvF1g9S41a-122" edge="1">
          <mxGeometry relative="1" as="geometry">
            <Array as="points">
              <mxPoint x="550" y="470" />
              <mxPoint x="680" y="470" />
            </Array>
          </mxGeometry>
        </mxCell>
        <mxCell id="b0hiGt_KXSGvF1g9S41a-57" value="&lt;font color=&quot;#000000&quot; style=&quot;font-size: 12px&quot;&gt;Imm&lt;/font&gt;" style="rounded=0;whiteSpace=wrap;html=1;labelBorderColor=none;fontSize=14;fontColor=#A680B8;fillColor=none;dashed=1;dashPattern=1 1;" parent="1" vertex="1">
          <mxGeometry x="500" y="310" width="100" height="20" as="geometry" />
        </mxCell>
        <mxCell id="b0hiGt_KXSGvF1g9S41a-63" value="&lt;span style=&quot;font-family: &amp;#34;helvetica&amp;#34;&quot;&gt;Control&lt;br&gt;&amp;nbsp;&lt;/span&gt;&lt;span style=&quot;font-family: &amp;#34;helvetica&amp;#34;&quot;&gt;Logic&lt;/span&gt;" style="rounded=0;whiteSpace=wrap;html=1;fontSize=26;fillColor=#E6E6E6;strokeColor=#000000;strokeWidth=2;" parent="1" vertex="1">
          <mxGeometry x="1111.25" y="240" width="140" height="550" as="geometry" />
        </mxCell>
        <mxCell id="b0hiGt_KXSGvF1g9S41a-66" style="edgeStyle=orthogonalEdgeStyle;rounded=0;orthogonalLoop=1;jettySize=auto;html=1;entryX=0;entryY=0.5;entryDx=0;entryDy=0;fontSize=40;fontColor=#004C99;" parent="1" source="b0hiGt_KXSGvF1g9S41a-64" target="b0hiGt_KXSGvF1g9S41a-65" edge="1">
          <mxGeometry relative="1" as="geometry" />
        </mxCell>
        <mxCell id="b0hiGt_KXSGvF1g9S41a-64" value="&lt;span style=&quot;color: rgb(0 , 0 , 0) ; font-size: 12px&quot;&gt;Hcf&lt;/span&gt;" style="rounded=0;whiteSpace=wrap;html=1;labelBorderColor=none;fontSize=14;fontColor=#A680B8;fillColor=none;dashed=1;dashPattern=1 1;" parent="1" vertex="1">
          <mxGeometry x="300" y="721" width="40" height="20" as="geometry" />
        </mxCell>
        <mxCell id="b0hiGt_KXSGvF1g9S41a-65" value="&lt;span style=&quot;color: rgb(0 , 0 , 0) ; font-size: 12px&quot;&gt;Hcf&lt;/span&gt;" style="rounded=0;whiteSpace=wrap;html=1;labelBorderColor=none;fontSize=14;fontColor=#A680B8;fillColor=none;dashed=1;dashPattern=1 1;" parent="1" vertex="1">
          <mxGeometry x="380" y="721" width="40" height="20" as="geometry" />
        </mxCell>
        <mxCell id="b0hiGt_KXSGvF1g9S41a-71" style="edgeStyle=orthogonalEdgeStyle;rounded=0;orthogonalLoop=1;jettySize=auto;html=1;fontSize=40;fontColor=#004C99;" parent="1" source="b0hiGt_KXSGvF1g9S41a-67" target="b0hiGt_KXSGvF1g9S41a-70" edge="1">
          <mxGeometry relative="1" as="geometry" />
        </mxCell>
        <mxCell id="b0hiGt_KXSGvF1g9S41a-131" style="edgeStyle=orthogonalEdgeStyle;rounded=0;orthogonalLoop=1;jettySize=auto;html=1;entryX=1;entryY=0.75;entryDx=0;entryDy=0;fontSize=40;fontColor=#004C99;" parent="1" source="b0hiGt_KXSGvF1g9S41a-67" target="b0hiGt_KXSGvF1g9S41a-128" edge="1">
          <mxGeometry relative="1" as="geometry">
            <Array as="points">
              <mxPoint x="850" y="730" />
              <mxPoint x="850" y="640" />
            </Array>
          </mxGeometry>
        </mxCell>
        <mxCell id="b0hiGt_KXSGvF1g9S41a-67" value="&lt;font color=&quot;#000000&quot; style=&quot;font-size: 12px&quot;&gt;PC&lt;/font&gt;" style="rounded=0;whiteSpace=wrap;html=1;labelBorderColor=none;fontSize=14;fontColor=#A680B8;fillColor=none;dashed=1;dashPattern=1 1;" parent="1" vertex="1">
          <mxGeometry x="470" y="721" width="40" height="20" as="geometry" />
        </mxCell>
        <mxCell id="b0hiGt_KXSGvF1g9S41a-68" value="&lt;font color=&quot;#000000&quot; style=&quot;font-size: 12px&quot;&gt;raddr&lt;/font&gt;" style="rounded=0;whiteSpace=wrap;html=1;labelBorderColor=none;fontSize=14;fontColor=#A680B8;fillColor=none;dashed=1;dashPattern=1 1;" parent="1" vertex="1">
          <mxGeometry x="470" y="940" width="40" height="20" as="geometry" />
        </mxCell>
        <mxCell id="b0hiGt_KXSGvF1g9S41a-72" style="edgeStyle=orthogonalEdgeStyle;rounded=0;orthogonalLoop=1;jettySize=auto;html=1;fontSize=40;fontColor=#004C99;" parent="1" source="b0hiGt_KXSGvF1g9S41a-70" target="b0hiGt_KXSGvF1g9S41a-68" edge="1">
          <mxGeometry relative="1" as="geometry" />
        </mxCell>
        <mxCell id="b0hiGt_KXSGvF1g9S41a-154" style="edgeStyle=orthogonalEdgeStyle;rounded=0;orthogonalLoop=1;jettySize=auto;html=1;exitX=1;exitY=0.5;exitDx=0;exitDy=0;entryX=0;entryY=0.5;entryDx=0;entryDy=0;fontSize=40;fontColor=#004C99;" parent="1" source="b0hiGt_KXSGvF1g9S41a-70" target="b0hiGt_KXSGvF1g9S41a-152" edge="1">
          <mxGeometry relative="1" as="geometry" />
        </mxCell>
        <mxCell id="b0hiGt_KXSGvF1g9S41a-70" value="&lt;font color=&quot;#000000&quot; style=&quot;font-size: 12px&quot;&gt;PC&lt;/font&gt;" style="rounded=0;whiteSpace=wrap;html=1;labelBorderColor=none;fontSize=14;fontColor=#A680B8;fillColor=none;dashed=1;dashPattern=1 1;" parent="1" vertex="1">
          <mxGeometry x="470" y="820" width="40" height="20" as="geometry" />
        </mxCell>
        <mxCell id="b0hiGt_KXSGvF1g9S41a-75" style="edgeStyle=orthogonalEdgeStyle;rounded=0;orthogonalLoop=1;jettySize=auto;html=1;entryX=0;entryY=0.5;entryDx=0;entryDy=0;fontSize=40;fontColor=#004C99;" parent="1" source="b0hiGt_KXSGvF1g9S41a-73" target="b0hiGt_KXSGvF1g9S41a-74" edge="1">
          <mxGeometry relative="1" as="geometry" />
        </mxCell>
        <mxCell id="b0hiGt_KXSGvF1g9S41a-73" value="&lt;span style=&quot;color: rgb(0 , 0 , 0) ; font-size: 12px&quot;&gt;PCSel&lt;/span&gt;" style="rounded=0;whiteSpace=wrap;html=1;labelBorderColor=none;fontSize=14;fontColor=#A680B8;fillColor=none;dashed=1;dashPattern=1 1;" parent="1" vertex="1">
          <mxGeometry x="300" y="680" width="40" height="20" as="geometry" />
        </mxCell>
        <mxCell id="b0hiGt_KXSGvF1g9S41a-74" value="&lt;font color=&quot;#000000&quot; style=&quot;font-size: 12px&quot;&gt;PCSel&lt;/font&gt;" style="rounded=0;whiteSpace=wrap;html=1;labelBorderColor=none;fontSize=14;fontColor=#A680B8;fillColor=none;dashed=1;dashPattern=1 1;" parent="1" vertex="1">
          <mxGeometry x="380" y="680" width="40" height="20" as="geometry" />
        </mxCell>
        <mxCell id="b0hiGt_KXSGvF1g9S41a-76" value="&lt;font color=&quot;#000000&quot; style=&quot;font-size: 12px&quot;&gt;alu_out&lt;/font&gt;" style="rounded=0;whiteSpace=wrap;html=1;labelBorderColor=none;fontSize=14;fontColor=#A680B8;fillColor=none;dashed=1;dashPattern=1 1;" parent="1" vertex="1">
          <mxGeometry x="460" y="680" width="50" height="20" as="geometry" />
        </mxCell>
        <mxCell id="b0hiGt_KXSGvF1g9S41a-82" style="edgeStyle=orthogonalEdgeStyle;rounded=0;orthogonalLoop=1;jettySize=auto;html=1;entryX=0.5;entryY=1;entryDx=0;entryDy=0;fontSize=40;fontColor=#004C99;" parent="1" source="b0hiGt_KXSGvF1g9S41a-80" target="b0hiGt_KXSGvF1g9S41a-81" edge="1">
          <mxGeometry relative="1" as="geometry" />
        </mxCell>
        <mxCell id="b0hiGt_KXSGvF1g9S41a-80" value="&lt;font color=&quot;#000000&quot; style=&quot;font-size: 12px&quot;&gt;inst&lt;/font&gt;" style="rounded=0;whiteSpace=wrap;html=1;labelBorderColor=none;fontSize=14;fontColor=#A680B8;fillColor=none;dashed=1;dashPattern=1 1;" parent="1" vertex="1">
          <mxGeometry x="210" y="940" width="40" height="20" as="geometry" />
        </mxCell>
        <mxCell id="b0hiGt_KXSGvF1g9S41a-84" style="edgeStyle=orthogonalEdgeStyle;rounded=0;orthogonalLoop=1;jettySize=auto;html=1;exitX=0.5;exitY=0;exitDx=0;exitDy=0;entryX=0.5;entryY=1;entryDx=0;entryDy=0;fontSize=40;fontColor=#004C99;" parent="1" source="b0hiGt_KXSGvF1g9S41a-81" target="b0hiGt_KXSGvF1g9S41a-83" edge="1">
          <mxGeometry relative="1" as="geometry" />
        </mxCell>
        <mxCell id="b0hiGt_KXSGvF1g9S41a-81" value="&lt;font color=&quot;#000000&quot; style=&quot;font-size: 12px&quot;&gt;inst&lt;/font&gt;" style="rounded=0;whiteSpace=wrap;html=1;labelBorderColor=none;fontSize=14;fontColor=#A680B8;fillColor=none;dashed=1;dashPattern=1 1;" parent="1" vertex="1">
          <mxGeometry x="210" y="820" width="40" height="20" as="geometry" />
        </mxCell>
        <mxCell id="b0hiGt_KXSGvF1g9S41a-83" value="&lt;font color=&quot;#000000&quot; style=&quot;font-size: 12px&quot;&gt;inst&lt;/font&gt;" style="rounded=0;whiteSpace=wrap;html=1;labelBorderColor=none;fontSize=14;fontColor=#A680B8;fillColor=none;dashed=1;dashPattern=1 1;" parent="1" vertex="1">
          <mxGeometry x="210" y="770" width="40" height="20" as="geometry" />
        </mxCell>
        <mxCell id="b0hiGt_KXSGvF1g9S41a-85" value="&lt;font color=&quot;#000000&quot;&gt;&lt;span style=&quot;font-size: 12px&quot;&gt;src2&lt;/span&gt;&lt;/font&gt;" style="rounded=0;whiteSpace=wrap;html=1;labelBorderColor=none;fontSize=14;fontColor=#A680B8;fillColor=none;dashed=1;dashPattern=1 1;" parent="1" vertex="1">
          <mxGeometry x="670" y="585" width="60" height="20" as="geometry" />
        </mxCell>
        <mxCell id="b0hiGt_KXSGvF1g9S41a-98" style="edgeStyle=orthogonalEdgeStyle;rounded=0;orthogonalLoop=1;jettySize=auto;html=1;entryX=0;entryY=0.5;entryDx=0;entryDy=0;fontSize=40;fontColor=#004C99;" parent="1" source="b0hiGt_KXSGvF1g9S41a-96" target="b0hiGt_KXSGvF1g9S41a-97" edge="1">
          <mxGeometry relative="1" as="geometry" />
        </mxCell>
        <mxCell id="b0hiGt_KXSGvF1g9S41a-96" value="&lt;font color=&quot;#000000&quot;&gt;&lt;span style=&quot;font-size: 12px&quot;&gt;BSel&lt;/span&gt;&lt;/font&gt;&lt;span style=&quot;color: rgba(0 , 0 , 0 , 0) ; font-family: monospace ; font-size: 0px&quot;&gt;%3CmxGraphModel%3E%3Croot%3E%3CmxCell%20id%3D%220%22%2F%3E%3CmxCell%20id%3D%221%22%20parent%3D%220%22%2F%3E%3CmxCell%20id%3D%222%22%20value%3D%22%26lt%3Bfont%20color%3D%26quot%3B%23000000%26quot%3B%26gt%3B%26lt%3Bspan%20style%3D%26quot%3Bfont-size%3A%2012px%26quot%3B%26gt%3BBrLT%26lt%3B%2Fspan%26gt%3B%26lt%3B%2Ffont%26gt%3B%22%20style%3D%22rounded%3D0%3BwhiteSpace%3Dwrap%3Bhtml%3D1%3BlabelBorderColor%3Dnone%3BfontSize%3D14%3BfontColor%3D%23A680B8%3BfillColor%3Dnone%3Bdashed%3D1%3BdashPattern%3D1%201%3B%22%20vertex%3D%221%22%20parent%3D%221%22%3E%3CmxGeometry%20x%3D%22320%22%20y%3D%22180%22%20width%3D%2240%22%20height%3D%2220%22%20as%3D%22geometry%22%2F%3E%3C%2FmxCell%3E%3C%2Froot%3E%3C%2FmxGraphModel%3E&lt;/span&gt;" style="rounded=0;whiteSpace=wrap;html=1;labelBorderColor=none;fontSize=14;fontColor=#A680B8;fillColor=none;dashed=1;dashPattern=1 1;" parent="1" vertex="1">
          <mxGeometry x="310" y="500" width="30" height="20" as="geometry" />
        </mxCell>
        <mxCell id="b0hiGt_KXSGvF1g9S41a-124" style="edgeStyle=orthogonalEdgeStyle;rounded=0;orthogonalLoop=1;jettySize=auto;html=1;fontSize=40;fontColor=#004C99;" parent="1" source="b0hiGt_KXSGvF1g9S41a-97" target="b0hiGt_KXSGvF1g9S41a-122" edge="1">
          <mxGeometry relative="1" as="geometry" />
        </mxCell>
        <mxCell id="b0hiGt_KXSGvF1g9S41a-97" value="&lt;font color=&quot;#000000&quot;&gt;&lt;span style=&quot;font-size: 12px&quot;&gt;BSel&lt;/span&gt;&lt;/font&gt;&lt;span style=&quot;color: rgba(0 , 0 , 0 , 0) ; font-family: monospace ; font-size: 0px&quot;&gt;%3CmxGraphModel%3E%3Croot%3E%3CmxCell%20id%3D%220%22%2F%3E%3CmxCell%20id%3D%221%22%20parent%3D%220%22%2F%3E%3CmxCell%20id%3D%222%22%20value%3D%22%26lt%3Bfont%20color%3D%26quot%3B%23000000%26quot%3B%26gt%3B%26lt%3Bspan%20style%3D%26quot%3Bfont-size%3A%2012px%26quot%3B%26gt%3BBrLT%26lt%3B%2Fspan%26gt%3B%26lt%3B%2Ffont%26gt%3B%22%20style%3D%22rounded%3D0%3BwhiteSpace%3Dwrap%3Bhtml%3D1%3BlabelBorderColor%3Dnone%3BfontSize%3D14%3BfontColor%3D%23A680B8%3BfillColor%3Dnone%3Bdashed%3D1%3BdashPattern%3D1%201%3B%22%20vertex%3D%221%22%20parent%3D%221%22%3E%3CmxGeometry%20x%3D%22320%22%20y%3D%22180%22%20width%3D%2240%22%20height%3D%2220%22%20as%3D%22geometry%22%2F%3E%3C%2FmxCell%3E%3C%2Froot%3E%3C%2FmxGraphModel%3E&lt;/span&gt;" style="rounded=0;whiteSpace=wrap;html=1;labelBorderColor=none;fontSize=14;fontColor=#A680B8;fillColor=none;dashed=1;dashPattern=1 1;" parent="1" vertex="1">
          <mxGeometry x="380" y="500" width="40" height="20" as="geometry" />
        </mxCell>
        <mxCell id="b0hiGt_KXSGvF1g9S41a-113" style="edgeStyle=orthogonalEdgeStyle;rounded=0;orthogonalLoop=1;jettySize=auto;html=1;entryX=0;entryY=0.5;entryDx=0;entryDy=0;fontSize=40;fontColor=#004C99;" parent="1" source="b0hiGt_KXSGvF1g9S41a-111" target="b0hiGt_KXSGvF1g9S41a-112" edge="1">
          <mxGeometry relative="1" as="geometry" />
        </mxCell>
        <mxCell id="b0hiGt_KXSGvF1g9S41a-111" value="&lt;font color=&quot;#000000&quot;&gt;&lt;span style=&quot;font-size: 12px&quot;&gt;ASel&lt;/span&gt;&lt;/font&gt;&lt;span style=&quot;color: rgba(0 , 0 , 0 , 0) ; font-family: monospace ; font-size: 0px&quot;&gt;%3CmxGraphModel%3E%3Croot%3E%3CmxCell%20id%3D%220%22%2F%3E%3CmxCell%20id%3D%221%22%20parent%3D%220%22%2F%3E%3CmxCell%20id%3D%222%22%20value%3D%22%26lt%3Bfont%20color%3D%26quot%3B%23000000%26quot%3B%26gt%3B%26lt%3Bspan%20style%3D%26quot%3Bfont-size%3A%2012px%26quot%3B%26gt%3BBrLT%26lt%3B%2Fspan%26gt%3B%26lt%3B%2Ffont%26gt%3B%22%20style%3D%22rounded%3D0%3BwhiteSpace%3Dwrap%3Bhtml%3D1%3BlabelBorderColor%3Dnone%3BfontSize%3D14%3BfontColor%3D%23A680B8%3BfillColor%3Dnone%3Bdashed%3D1%3BdashPattern%3D1%201%3B%22%20vertex%3D%221%22%20parent%3D%221%22%3E%3CmxGeometry%20x%3D%22320%22%20y%3D%22180%22%20width%3D%2240%22%20height%3D%2220%22%20as%3D%22geometry%22%2F%3E%3C%2FmxCell%3E%3C%2Froot%3E%3C%2FmxGraphModel%3E&lt;/span&gt;" style="rounded=0;whiteSpace=wrap;html=1;labelBorderColor=none;fontSize=14;fontColor=#A680B8;fillColor=none;dashed=1;dashPattern=1 1;" parent="1" vertex="1">
          <mxGeometry x="310" y="540" width="30" height="20" as="geometry" />
        </mxCell>
        <mxCell id="b0hiGt_KXSGvF1g9S41a-130" style="edgeStyle=orthogonalEdgeStyle;rounded=0;orthogonalLoop=1;jettySize=auto;html=1;fontSize=40;fontColor=#004C99;" parent="1" source="b0hiGt_KXSGvF1g9S41a-112" target="b0hiGt_KXSGvF1g9S41a-128" edge="1">
          <mxGeometry relative="1" as="geometry" />
        </mxCell>
        <mxCell id="b0hiGt_KXSGvF1g9S41a-112" value="&lt;font color=&quot;#000000&quot;&gt;&lt;span style=&quot;font-size: 12px&quot;&gt;ASel&lt;/span&gt;&lt;/font&gt;&lt;span style=&quot;color: rgba(0 , 0 , 0 , 0) ; font-family: monospace ; font-size: 0px&quot;&gt;%3CmxGraphModel%3E%3Croot%3E%3CmxCell%20id%3D%220%22%2F%3E%3CmxCell%20id%3D%221%22%20parent%3D%220%22%2F%3E%3CmxCell%20id%3D%222%22%20value%3D%22%26lt%3Bfont%20color%3D%26quot%3B%23000000%26quot%3B%26gt%3B%26lt%3Bspan%20style%3D%26quot%3Bfont-size%3A%2012px%26quot%3B%26gt%3BBrLT%26lt%3B%2Fspan%26gt%3B%26lt%3B%2Ffont%26gt%3B%22%20style%3D%22rounded%3D0%3BwhiteSpace%3Dwrap%3Bhtml%3D1%3BlabelBorderColor%3Dnone%3BfontSize%3D14%3BfontColor%3D%23A680B8%3BfillColor%3Dnone%3Bdashed%3D1%3BdashPattern%3D1%201%3B%22%20vertex%3D%221%22%20parent%3D%221%22%3E%3CmxGeometry%20x%3D%22320%22%20y%3D%22180%22%20width%3D%2240%22%20height%3D%2220%22%20as%3D%22geometry%22%2F%3E%3C%2FmxCell%3E%3C%2Froot%3E%3C%2FmxGraphModel%3E&lt;/span&gt;" style="rounded=0;whiteSpace=wrap;html=1;labelBorderColor=none;fontSize=14;fontColor=#A680B8;fillColor=none;dashed=1;dashPattern=1 1;" parent="1" vertex="1">
          <mxGeometry x="380" y="540" width="40" height="20" as="geometry" />
        </mxCell>
        <mxCell id="b0hiGt_KXSGvF1g9S41a-123" value="" style="edgeStyle=orthogonalEdgeStyle;rounded=0;orthogonalLoop=1;jettySize=auto;html=1;fontSize=40;fontColor=#004C99;" parent="1" source="b0hiGt_KXSGvF1g9S41a-122" target="b0hiGt_KXSGvF1g9S41a-85" edge="1">
          <mxGeometry relative="1" as="geometry" />
        </mxCell>
        <mxCell id="b0hiGt_KXSGvF1g9S41a-122" value="&lt;font color=&quot;#000000&quot;&gt;&lt;span style=&quot;font-size: 12px&quot;&gt;Mux&lt;/span&gt;&lt;/font&gt;" style="rounded=0;whiteSpace=wrap;html=1;labelBorderColor=none;fontSize=14;fontColor=#A680B8;fillColor=#E6E6E6;dashed=1;dashPattern=1 1;" parent="1" vertex="1">
          <mxGeometry x="660" y="500" width="80" height="20" as="geometry" />
        </mxCell>
        <mxCell id="b0hiGt_KXSGvF1g9S41a-129" style="edgeStyle=orthogonalEdgeStyle;rounded=0;orthogonalLoop=1;jettySize=auto;html=1;fontSize=40;fontColor=#004C99;" parent="1" source="b0hiGt_KXSGvF1g9S41a-128" target="b0hiGt_KXSGvF1g9S41a-36" edge="1">
          <mxGeometry relative="1" as="geometry">
            <Array as="points">
              <mxPoint x="780" y="622" />
              <mxPoint x="780" y="622" />
            </Array>
          </mxGeometry>
        </mxCell>
        <mxCell id="b0hiGt_KXSGvF1g9S41a-128" value="&lt;font color=&quot;#000000&quot;&gt;&lt;span style=&quot;font-size: 12px&quot;&gt;M&lt;br&gt;u&lt;br&gt;x&lt;/span&gt;&lt;/font&gt;" style="rounded=0;whiteSpace=wrap;html=1;labelBorderColor=none;fontSize=14;fontColor=#A680B8;fillColor=#E6E6E6;dashed=1;dashPattern=1 1;" parent="1" vertex="1">
          <mxGeometry x="810" y="583" width="20" height="76" as="geometry" />
        </mxCell>
        <mxCell id="b0hiGt_KXSGvF1g9S41a-139" style="edgeStyle=orthogonalEdgeStyle;rounded=0;orthogonalLoop=1;jettySize=auto;html=1;exitX=1;exitY=0.5;exitDx=0;exitDy=0;fontSize=40;fontColor=#004C99;" parent="1" source="b0hiGt_KXSGvF1g9S41a-133" target="b0hiGt_KXSGvF1g9S41a-137" edge="1">
          <mxGeometry relative="1" as="geometry">
            <Array as="points">
              <mxPoint x="1250" y="780" />
            </Array>
          </mxGeometry>
        </mxCell>
        <mxCell id="b0hiGt_KXSGvF1g9S41a-133" value="&lt;font color=&quot;#000000&quot; style=&quot;font-size: 12px&quot;&gt;MemRW&lt;/font&gt;" style="rounded=0;whiteSpace=wrap;html=1;labelBorderColor=none;fontSize=14;fontColor=#A680B8;fillColor=none;dashed=1;dashPattern=1 1;" parent="1" vertex="1">
          <mxGeometry x="1180" y="770" width="60" height="20" as="geometry" />
        </mxCell>
        <mxCell id="b0hiGt_KXSGvF1g9S41a-134" value="&lt;font color=&quot;#000000&quot; style=&quot;font-size: 12px&quot;&gt;wen&lt;/font&gt;" style="rounded=0;whiteSpace=wrap;html=1;labelBorderColor=none;fontSize=14;fontColor=#A680B8;fillColor=none;dashed=1;dashPattern=1 1;" parent="1" vertex="1">
          <mxGeometry x="1168.75" y="1040" width="60" height="20" as="geometry" />
        </mxCell>
        <mxCell id="b0hiGt_KXSGvF1g9S41a-140" style="edgeStyle=orthogonalEdgeStyle;rounded=0;orthogonalLoop=1;jettySize=auto;html=1;entryX=1;entryY=0.5;entryDx=0;entryDy=0;fontSize=40;fontColor=#004C99;" parent="1" source="b0hiGt_KXSGvF1g9S41a-137" target="b0hiGt_KXSGvF1g9S41a-134" edge="1">
          <mxGeometry relative="1" as="geometry">
            <Array as="points">
              <mxPoint x="1250" y="1050" />
            </Array>
          </mxGeometry>
        </mxCell>
        <mxCell id="b0hiGt_KXSGvF1g9S41a-137" value="&lt;font color=&quot;#000000&quot; style=&quot;font-size: 12px&quot;&gt;MemRW&lt;/font&gt;" style="rounded=0;whiteSpace=wrap;html=1;labelBorderColor=none;fontSize=14;fontColor=#A680B8;fillColor=none;dashed=1;dashPattern=1 1;" parent="1" vertex="1">
          <mxGeometry x="1220" y="820" width="60" height="20" as="geometry" />
        </mxCell>
        <mxCell id="b0hiGt_KXSGvF1g9S41a-141" value="&lt;font color=&quot;#000000&quot; style=&quot;font-size: 12px&quot;&gt;funct3&lt;/font&gt;" style="rounded=0;whiteSpace=wrap;html=1;labelBorderColor=none;fontSize=14;fontColor=#A680B8;fillColor=none;dashed=1;dashPattern=1 1;" parent="1" vertex="1">
          <mxGeometry x="1180" y="940" width="40" height="20" as="geometry" />
        </mxCell>
        <mxCell id="b0hiGt_KXSGvF1g9S41a-164" style="edgeStyle=orthogonalEdgeStyle;rounded=0;orthogonalLoop=1;jettySize=auto;html=1;fontSize=40;fontColor=#004C99;" parent="1" source="b0hiGt_KXSGvF1g9S41a-142" target="b0hiGt_KXSGvF1g9S41a-163" edge="1">
          <mxGeometry relative="1" as="geometry" />
        </mxCell>
        <mxCell id="b0hiGt_KXSGvF1g9S41a-142" value="&lt;font color=&quot;#000000&quot; style=&quot;font-size: 12px&quot;&gt;raddr&lt;/font&gt;" style="rounded=0;whiteSpace=wrap;html=1;labelBorderColor=none;fontSize=14;fontColor=#A680B8;fillColor=none;dashed=1;dashPattern=1 1;" parent="1" vertex="1">
          <mxGeometry x="1000" y="940" width="40" height="20" as="geometry" />
        </mxCell>
        <mxCell id="b0hiGt_KXSGvF1g9S41a-159" style="edgeStyle=orthogonalEdgeStyle;rounded=0;orthogonalLoop=1;jettySize=auto;html=1;fontSize=40;fontColor=#004C99;" parent="1" source="b0hiGt_KXSGvF1g9S41a-143" target="b0hiGt_KXSGvF1g9S41a-158" edge="1">
          <mxGeometry relative="1" as="geometry" />
        </mxCell>
        <mxCell id="b0hiGt_KXSGvF1g9S41a-143" value="&lt;font color=&quot;#000000&quot;&gt;&lt;span style=&quot;font-size: 12px&quot;&gt;rdata&lt;/span&gt;&lt;/font&gt;" style="rounded=0;whiteSpace=wrap;html=1;labelBorderColor=none;fontSize=14;fontColor=#A680B8;fillColor=none;dashed=1;dashPattern=1 1;" parent="1" vertex="1">
          <mxGeometry x="870" y="940" width="30" height="20" as="geometry" />
        </mxCell>
        <mxCell id="b0hiGt_KXSGvF1g9S41a-144" value="&lt;font color=&quot;#000000&quot;&gt;&lt;span style=&quot;font-size: 12px&quot;&gt;waddr&lt;/span&gt;&lt;/font&gt;" style="rounded=0;whiteSpace=wrap;html=1;labelBorderColor=none;fontSize=14;fontColor=#A680B8;fillColor=none;dashed=1;dashPattern=1 1;" parent="1" vertex="1">
          <mxGeometry x="1040" y="940" width="40" height="20" as="geometry" />
        </mxCell>
        <mxCell id="b0hiGt_KXSGvF1g9S41a-145" value="&lt;font color=&quot;#000000&quot;&gt;&lt;span style=&quot;font-size: 12px&quot;&gt;wdata&lt;/span&gt;&lt;/font&gt;" style="rounded=0;whiteSpace=wrap;html=1;labelBorderColor=none;fontSize=14;fontColor=#A680B8;fillColor=none;dashed=1;dashPattern=1 1;" parent="1" vertex="1">
          <mxGeometry x="808" y="940" width="40" height="20" as="geometry" />
        </mxCell>
        <mxCell id="b0hiGt_KXSGvF1g9S41a-147" style="edgeStyle=orthogonalEdgeStyle;rounded=0;orthogonalLoop=1;jettySize=auto;html=1;fontSize=40;fontColor=#004C99;" parent="1" source="b0hiGt_KXSGvF1g9S41a-146" target="b0hiGt_KXSGvF1g9S41a-141" edge="1">
          <mxGeometry relative="1" as="geometry" />
        </mxCell>
        <mxCell id="b0hiGt_KXSGvF1g9S41a-146" value="&lt;font color=&quot;#000000&quot; style=&quot;font-size: 12px&quot;&gt;funct3&lt;/font&gt;" style="rounded=0;whiteSpace=wrap;html=1;labelBorderColor=none;fontSize=14;fontColor=#A680B8;fillColor=none;dashed=1;dashPattern=1 1;" parent="1" vertex="1">
          <mxGeometry x="1180" y="820" width="40" height="20" as="geometry" />
        </mxCell>
        <mxCell id="b0hiGt_KXSGvF1g9S41a-150" style="edgeStyle=orthogonalEdgeStyle;rounded=0;orthogonalLoop=1;jettySize=auto;html=1;entryX=0.5;entryY=0;entryDx=0;entryDy=0;fontSize=40;fontColor=#004C99;" parent="1" source="b0hiGt_KXSGvF1g9S41a-148" target="b0hiGt_KXSGvF1g9S41a-144" edge="1">
          <mxGeometry relative="1" as="geometry" />
        </mxCell>
        <mxCell id="b0hiGt_KXSGvF1g9S41a-148" value="&lt;font color=&quot;#000000&quot;&gt;&lt;span style=&quot;font-size: 12px&quot;&gt;waddr&lt;/span&gt;&lt;/font&gt;" style="rounded=0;whiteSpace=wrap;html=1;labelBorderColor=none;fontSize=14;fontColor=#A680B8;fillColor=none;dashed=1;dashPattern=1 1;" parent="1" vertex="1">
          <mxGeometry x="1040" y="820" width="40" height="20" as="geometry" />
        </mxCell>
        <mxCell id="F9InCecKEHfJbYSXSyen-71" style="edgeStyle=orthogonalEdgeStyle;rounded=0;orthogonalLoop=1;jettySize=auto;html=1;fontSize=12;fontColor=#004C99;" edge="1" parent="1" source="b0hiGt_KXSGvF1g9S41a-152" target="b0hiGt_KXSGvF1g9S41a-145">
          <mxGeometry relative="1" as="geometry" />
        </mxCell>
        <mxCell id="b0hiGt_KXSGvF1g9S41a-152" value="&lt;font color=&quot;#000000&quot;&gt;&lt;span style=&quot;font-size: 12px&quot;&gt;wdata&lt;/span&gt;&lt;/font&gt;" style="rounded=0;whiteSpace=wrap;html=1;labelBorderColor=none;fontSize=14;fontColor=#A680B8;fillColor=none;dashed=1;dashPattern=1 1;" parent="1" vertex="1">
          <mxGeometry x="810" y="820" width="37" height="20" as="geometry" />
        </mxCell>
        <mxCell id="b0hiGt_KXSGvF1g9S41a-162" style="edgeStyle=orthogonalEdgeStyle;rounded=0;orthogonalLoop=1;jettySize=auto;html=1;entryX=1;entryY=0.5;entryDx=0;entryDy=0;fontSize=40;fontColor=#004C99;" parent="1" source="b0hiGt_KXSGvF1g9S41a-158" target="b0hiGt_KXSGvF1g9S41a-152" edge="1">
          <mxGeometry relative="1" as="geometry" />
        </mxCell>
        <mxCell id="F9InCecKEHfJbYSXSyen-55" style="edgeStyle=orthogonalEdgeStyle;rounded=0;orthogonalLoop=1;jettySize=auto;html=1;fontSize=40;fontColor=#004C99;" edge="1" parent="1" source="b0hiGt_KXSGvF1g9S41a-158">
          <mxGeometry relative="1" as="geometry">
            <mxPoint x="885" y="770" as="targetPoint" />
          </mxGeometry>
        </mxCell>
        <mxCell id="b0hiGt_KXSGvF1g9S41a-158" value="&lt;font color=&quot;#000000&quot;&gt;&lt;span style=&quot;font-size: 12px&quot;&gt;rdata&lt;/span&gt;&lt;/font&gt;" style="rounded=0;whiteSpace=wrap;html=1;labelBorderColor=none;fontSize=14;fontColor=#A680B8;fillColor=none;dashed=1;dashPattern=1 1;" parent="1" vertex="1">
          <mxGeometry x="870" y="820" width="30" height="20" as="geometry" />
        </mxCell>
        <mxCell id="b0hiGt_KXSGvF1g9S41a-163" value="&lt;font color=&quot;#000000&quot; style=&quot;font-size: 12px&quot;&gt;raddr&lt;/font&gt;" style="rounded=0;whiteSpace=wrap;html=1;labelBorderColor=none;fontSize=14;fontColor=#A680B8;fillColor=none;dashed=1;dashPattern=1 1;" parent="1" vertex="1">
          <mxGeometry x="1000" y="820" width="40" height="20" as="geometry" />
        </mxCell>
        <mxCell id="F9InCecKEHfJbYSXSyen-5" style="edgeStyle=orthogonalEdgeStyle;rounded=0;orthogonalLoop=1;jettySize=auto;html=1;entryX=0;entryY=0.5;entryDx=0;entryDy=0;fontSize=40;fontColor=#004C99;" edge="1" parent="1" source="F9InCecKEHfJbYSXSyen-3" target="F9InCecKEHfJbYSXSyen-4">
          <mxGeometry relative="1" as="geometry" />
        </mxCell>
        <mxCell id="F9InCecKEHfJbYSXSyen-3" value="&lt;font color=&quot;#000000&quot;&gt;&lt;span style=&quot;font-size: 12px&quot;&gt;BrUn&lt;/span&gt;&lt;/font&gt;" style="rounded=0;whiteSpace=wrap;html=1;labelBorderColor=none;fontSize=14;fontColor=#A680B8;fillColor=none;dashed=1;dashPattern=1 1;" vertex="1" parent="1">
          <mxGeometry x="300" y="415" width="40" height="20" as="geometry" />
        </mxCell>
        <mxCell id="F9InCecKEHfJbYSXSyen-4" value="&lt;font color=&quot;#000000&quot;&gt;&lt;span style=&quot;font-size: 12px&quot;&gt;BrUn&lt;/span&gt;&lt;/font&gt;" style="rounded=0;whiteSpace=wrap;html=1;labelBorderColor=none;fontSize=14;fontColor=#A680B8;fillColor=none;dashed=1;dashPattern=1 1;" vertex="1" parent="1">
          <mxGeometry x="380" y="415" width="40" height="20" as="geometry" />
        </mxCell>
        <mxCell id="F9InCecKEHfJbYSXSyen-6" value="&lt;span style=&quot;color: rgb(0 , 0 , 0) ; font-size: 12px&quot;&gt;Vwen&lt;/span&gt;" style="rounded=0;whiteSpace=wrap;html=1;labelBorderColor=none;fontSize=14;fontColor=#A680B8;fillColor=none;dashed=1;dashPattern=1 1;" vertex="1" parent="1">
          <mxGeometry x="1020" y="240" width="50" height="20" as="geometry" />
        </mxCell>
        <mxCell id="F9InCecKEHfJbYSXSyen-8" style="edgeStyle=orthogonalEdgeStyle;rounded=0;orthogonalLoop=1;jettySize=auto;html=1;entryX=1;entryY=0.5;entryDx=0;entryDy=0;fontSize=40;fontColor=#004C99;" edge="1" parent="1" source="F9InCecKEHfJbYSXSyen-7" target="F9InCecKEHfJbYSXSyen-6">
          <mxGeometry relative="1" as="geometry" />
        </mxCell>
        <mxCell id="F9InCecKEHfJbYSXSyen-7" value="&lt;span style=&quot;color: rgb(0 , 0 , 0) ; font-size: 12px&quot;&gt;Vwen&lt;/span&gt;" style="rounded=0;whiteSpace=wrap;html=1;labelBorderColor=none;fontSize=14;fontColor=#A680B8;fillColor=none;dashed=1;dashPattern=1 1;" vertex="1" parent="1">
          <mxGeometry x="1111.25" y="240" width="50" height="20" as="geometry" />
        </mxCell>
        <mxCell id="F9InCecKEHfJbYSXSyen-12" value="&lt;font color=&quot;#000000&quot;&gt;&lt;span style=&quot;font-size: 12px&quot;&gt;Vwaddr&lt;/span&gt;&lt;/font&gt;" style="rounded=0;whiteSpace=wrap;html=1;labelBorderColor=none;fontSize=14;fontColor=#A680B8;fillColor=none;dashed=1;dashPattern=1 1;" vertex="1" parent="1">
          <mxGeometry x="860" y="240" width="50" height="20" as="geometry" />
        </mxCell>
        <mxCell id="F9InCecKEHfJbYSXSyen-13" value="&lt;font color=&quot;#000000&quot;&gt;&lt;span style=&quot;font-size: 12px&quot;&gt;Vwdata&lt;/span&gt;&lt;/font&gt;" style="rounded=0;whiteSpace=wrap;html=1;labelBorderColor=none;fontSize=14;fontColor=#A680B8;fillColor=none;dashed=1;dashPattern=1 1;" vertex="1" parent="1">
          <mxGeometry x="935" y="310" width="50" height="20" as="geometry" />
        </mxCell>
        <mxCell id="F9InCecKEHfJbYSXSyen-14" value="&lt;font color=&quot;#000000&quot;&gt;&lt;span style=&quot;font-size: 12px&quot;&gt;Vraddr(1)&lt;/span&gt;&lt;/font&gt;" style="rounded=0;whiteSpace=wrap;html=1;labelBorderColor=none;fontSize=14;fontColor=#A680B8;fillColor=none;dashed=1;dashPattern=1 1;" vertex="1" parent="1">
          <mxGeometry x="910" y="240" width="55" height="20" as="geometry" />
        </mxCell>
        <mxCell id="F9InCecKEHfJbYSXSyen-15" value="&lt;font color=&quot;#000000&quot;&gt;&lt;span style=&quot;font-size: 12px&quot;&gt;Vraddr(0)&lt;/span&gt;&lt;/font&gt;" style="rounded=0;whiteSpace=wrap;html=1;labelBorderColor=none;fontSize=14;fontColor=#A680B8;fillColor=none;dashed=1;dashPattern=1 1;" vertex="1" parent="1">
          <mxGeometry x="965" y="240" width="55" height="20" as="geometry" />
        </mxCell>
        <mxCell id="F9InCecKEHfJbYSXSyen-33" style="edgeStyle=orthogonalEdgeStyle;rounded=0;orthogonalLoop=1;jettySize=auto;html=1;fontSize=40;fontColor=#004C99;" edge="1" parent="1" source="F9InCecKEHfJbYSXSyen-16" target="F9InCecKEHfJbYSXSyen-31">
          <mxGeometry relative="1" as="geometry" />
        </mxCell>
        <mxCell id="F9InCecKEHfJbYSXSyen-16" value="&lt;font color=&quot;#000000&quot;&gt;&lt;span style=&quot;font-size: 12px&quot;&gt;Vrdata(1)&lt;/span&gt;&lt;/font&gt;" style="rounded=0;whiteSpace=wrap;html=1;labelBorderColor=none;fontSize=14;fontColor=#A680B8;fillColor=none;dashed=1;dashPattern=1 1;" vertex="1" parent="1">
          <mxGeometry x="870" y="310" width="60" height="20" as="geometry" />
        </mxCell>
        <mxCell id="F9InCecKEHfJbYSXSyen-28" style="edgeStyle=orthogonalEdgeStyle;rounded=0;orthogonalLoop=1;jettySize=auto;html=1;exitX=0.5;exitY=1;exitDx=0;exitDy=0;fontSize=40;fontColor=#004C99;" edge="1" parent="1" source="F9InCecKEHfJbYSXSyen-17" target="F9InCecKEHfJbYSXSyen-26">
          <mxGeometry relative="1" as="geometry" />
        </mxCell>
        <mxCell id="F9InCecKEHfJbYSXSyen-67" style="edgeStyle=orthogonalEdgeStyle;rounded=0;orthogonalLoop=1;jettySize=auto;html=1;entryX=1;entryY=0;entryDx=0;entryDy=0;fontSize=12;fontColor=#004C99;" edge="1" parent="1" source="F9InCecKEHfJbYSXSyen-17" target="F9InCecKEHfJbYSXSyen-64">
          <mxGeometry relative="1" as="geometry">
            <Array as="points">
              <mxPoint x="1020" y="370" />
              <mxPoint x="1060" y="370" />
              <mxPoint x="1060" y="600" />
              <mxPoint x="1013" y="600" />
            </Array>
          </mxGeometry>
        </mxCell>
        <mxCell id="F9InCecKEHfJbYSXSyen-17" value="&lt;font color=&quot;#000000&quot;&gt;&lt;span style=&quot;font-size: 12px&quot;&gt;Vrdata(0)&lt;/span&gt;&lt;/font&gt;" style="rounded=0;whiteSpace=wrap;html=1;labelBorderColor=none;fontSize=14;fontColor=#A680B8;fillColor=none;dashed=1;dashPattern=1 1;" vertex="1" parent="1">
          <mxGeometry x="990" y="310" width="60" height="20" as="geometry" />
        </mxCell>
        <mxCell id="F9InCecKEHfJbYSXSyen-18" value="&lt;font color=&quot;#000000&quot;&gt;&lt;span style=&quot;font-size: 12px&quot;&gt;Vsrc1&lt;/span&gt;&lt;/font&gt;" style="rounded=0;whiteSpace=wrap;html=1;labelBorderColor=none;fontSize=14;fontColor=#A680B8;fillColor=none;dashed=1;dashPattern=1 1;" vertex="1" parent="1">
          <mxGeometry x="990" y="470" width="60" height="30" as="geometry" />
        </mxCell>
        <mxCell id="F9InCecKEHfJbYSXSyen-19" value="&lt;font color=&quot;#000000&quot;&gt;&lt;span style=&quot;font-size: 12px&quot;&gt;Vsrc2&lt;/span&gt;&lt;/font&gt;" style="rounded=0;whiteSpace=wrap;html=1;labelBorderColor=none;fontSize=14;fontColor=#A680B8;fillColor=none;dashed=1;dashPattern=1 1;" vertex="1" parent="1">
          <mxGeometry x="870" y="470" width="60" height="30" as="geometry" />
        </mxCell>
        <mxCell id="F9InCecKEHfJbYSXSyen-21" style="edgeStyle=orthogonalEdgeStyle;rounded=0;orthogonalLoop=1;jettySize=auto;html=1;fontSize=40;fontColor=#004C99;entryX=0.603;entryY=1.036;entryDx=0;entryDy=0;entryPerimeter=0;" edge="1" parent="1" source="F9InCecKEHfJbYSXSyen-20" target="F9InCecKEHfJbYSXSyen-58">
          <mxGeometry relative="1" as="geometry">
            <mxPoint x="960" y="370" as="targetPoint" />
            <Array as="points">
              <mxPoint x="960" y="380" />
            </Array>
          </mxGeometry>
        </mxCell>
        <mxCell id="F9InCecKEHfJbYSXSyen-20" value="&lt;font color=&quot;#000000&quot;&gt;&lt;span style=&quot;font-size: 12px&quot;&gt;Vout&lt;/span&gt;&lt;/font&gt;" style="rounded=0;whiteSpace=wrap;html=1;labelBorderColor=none;fontSize=14;fontColor=#A680B8;fillColor=none;dashed=1;dashPattern=1 1;" vertex="1" parent="1">
          <mxGeometry x="930" y="470" width="60" height="30" as="geometry" />
        </mxCell>
        <mxCell id="F9InCecKEHfJbYSXSyen-27" style="edgeStyle=orthogonalEdgeStyle;rounded=0;orthogonalLoop=1;jettySize=auto;html=1;exitX=0;exitY=0.5;exitDx=0;exitDy=0;entryX=1;entryY=0.5;entryDx=0;entryDy=0;fontSize=40;fontColor=#004C99;" edge="1" parent="1" source="F9InCecKEHfJbYSXSyen-25" target="F9InCecKEHfJbYSXSyen-26">
          <mxGeometry relative="1" as="geometry" />
        </mxCell>
        <mxCell id="F9InCecKEHfJbYSXSyen-25" value="&lt;span style=&quot;color: rgb(0 , 0 , 0) ; font-size: 12px&quot;&gt;VASel&lt;/span&gt;" style="rounded=0;whiteSpace=wrap;html=1;labelBorderColor=none;fontSize=14;fontColor=#A680B8;fillColor=none;dashed=1;dashPattern=1 1;" vertex="1" parent="1">
          <mxGeometry x="1111.25" y="415" width="50" height="20" as="geometry" />
        </mxCell>
        <mxCell id="F9InCecKEHfJbYSXSyen-29" style="edgeStyle=orthogonalEdgeStyle;rounded=0;orthogonalLoop=1;jettySize=auto;html=1;fontSize=40;fontColor=#004C99;" edge="1" parent="1" source="F9InCecKEHfJbYSXSyen-26" target="F9InCecKEHfJbYSXSyen-18">
          <mxGeometry relative="1" as="geometry" />
        </mxCell>
        <mxCell id="F9InCecKEHfJbYSXSyen-26" value="&lt;span style=&quot;color: rgb(0 , 0 , 0) ; font-size: 12px&quot;&gt;Mux&lt;/span&gt;" style="rounded=0;whiteSpace=wrap;html=1;labelBorderColor=none;fontSize=14;fontColor=#A680B8;fillColor=none;dashed=1;dashPattern=1 1;" vertex="1" parent="1">
          <mxGeometry x="995" y="415" width="50" height="20" as="geometry" />
        </mxCell>
        <mxCell id="F9InCecKEHfJbYSXSyen-32" style="edgeStyle=orthogonalEdgeStyle;rounded=0;orthogonalLoop=1;jettySize=auto;html=1;entryX=1;entryY=0.5;entryDx=0;entryDy=0;fontSize=40;fontColor=#004C99;" edge="1" parent="1" source="F9InCecKEHfJbYSXSyen-30" target="F9InCecKEHfJbYSXSyen-31">
          <mxGeometry relative="1" as="geometry" />
        </mxCell>
        <mxCell id="F9InCecKEHfJbYSXSyen-30" value="&lt;span style=&quot;color: rgb(0 , 0 , 0) ; font-size: 12px&quot;&gt;VBSel&lt;/span&gt;" style="rounded=0;whiteSpace=wrap;html=1;labelBorderColor=none;fontSize=14;fontColor=#A680B8;fillColor=none;dashed=1;dashPattern=1 1;" vertex="1" parent="1">
          <mxGeometry x="1111.25" y="380" width="50" height="20" as="geometry" />
        </mxCell>
        <mxCell id="F9InCecKEHfJbYSXSyen-34" style="edgeStyle=orthogonalEdgeStyle;rounded=0;orthogonalLoop=1;jettySize=auto;html=1;fontSize=40;fontColor=#004C99;" edge="1" parent="1" source="F9InCecKEHfJbYSXSyen-31" target="F9InCecKEHfJbYSXSyen-19">
          <mxGeometry relative="1" as="geometry" />
        </mxCell>
        <mxCell id="F9InCecKEHfJbYSXSyen-31" value="&lt;span style=&quot;color: rgb(0 , 0 , 0) ; font-size: 12px&quot;&gt;Mux&lt;/span&gt;" style="rounded=0;whiteSpace=wrap;html=1;labelBorderColor=none;fontSize=14;fontColor=#A680B8;fillColor=none;dashed=1;dashPattern=1 1;" vertex="1" parent="1">
          <mxGeometry x="875" y="380" width="50" height="20" as="geometry" />
        </mxCell>
        <mxCell id="F9InCecKEHfJbYSXSyen-38" value="&lt;font style=&quot;font-size: 14px&quot; color=&quot;#004c99&quot;&gt;Vector &lt;br&gt;ALUSel &lt;br&gt;Decoder&lt;/font&gt;" style="rounded=0;whiteSpace=wrap;html=1;fillColor=#b1ddf0;strokeColor=#10739e;" vertex="1" parent="1">
          <mxGeometry x="1123" y="570" width="117.5" height="110" as="geometry" />
        </mxCell>
        <mxCell id="F9InCecKEHfJbYSXSyen-41" style="edgeStyle=orthogonalEdgeStyle;rounded=0;orthogonalLoop=1;jettySize=auto;html=1;entryX=1;entryY=0.5;entryDx=0;entryDy=0;fontSize=40;fontColor=#004C99;" edge="1" parent="1" source="F9InCecKEHfJbYSXSyen-39" target="F9InCecKEHfJbYSXSyen-40">
          <mxGeometry relative="1" as="geometry" />
        </mxCell>
        <mxCell id="F9InCecKEHfJbYSXSyen-39" value="&lt;span style=&quot;color: rgb(0 , 0 , 0) ; font-size: 12px&quot;&gt;VALUSel&lt;/span&gt;" style="rounded=0;whiteSpace=wrap;html=1;labelBorderColor=none;fontSize=14;fontColor=#A680B8;fillColor=none;dashed=1;dashPattern=1 1;" vertex="1" parent="1">
          <mxGeometry x="1123" y="570" width="50" height="20" as="geometry" />
        </mxCell>
        <mxCell id="F9InCecKEHfJbYSXSyen-40" value="&lt;span style=&quot;color: rgb(0 , 0 , 0) ; font-size: 12px&quot;&gt;VALUSel&lt;/span&gt;" style="rounded=0;whiteSpace=wrap;html=1;labelBorderColor=none;fontSize=14;fontColor=#A680B8;fillColor=none;dashed=1;dashPattern=1 1;" vertex="1" parent="1">
          <mxGeometry x="1000" y="570" width="50" height="20" as="geometry" />
        </mxCell>
        <mxCell id="F9InCecKEHfJbYSXSyen-44" style="edgeStyle=orthogonalEdgeStyle;rounded=0;orthogonalLoop=1;jettySize=auto;html=1;fontSize=40;fontColor=#004C99;" edge="1" parent="1" source="F9InCecKEHfJbYSXSyen-42" target="F9InCecKEHfJbYSXSyen-43">
          <mxGeometry relative="1" as="geometry" />
        </mxCell>
        <mxCell id="F9InCecKEHfJbYSXSyen-42" value="&lt;font color=&quot;#000000&quot;&gt;&lt;span style=&quot;font-size: 12px&quot;&gt;rdata(1)&lt;/span&gt;&lt;/font&gt;" style="rounded=0;whiteSpace=wrap;html=1;labelBorderColor=none;fontSize=14;fontColor=#A680B8;fillColor=none;dashed=1;dashPattern=1 1;" vertex="1" parent="1">
          <mxGeometry x="900" y="940" width="50" height="20" as="geometry" />
        </mxCell>
        <mxCell id="F9InCecKEHfJbYSXSyen-54" style="edgeStyle=orthogonalEdgeStyle;rounded=0;orthogonalLoop=1;jettySize=auto;html=1;fontSize=40;fontColor=#004C99;" edge="1" parent="1" source="F9InCecKEHfJbYSXSyen-43">
          <mxGeometry relative="1" as="geometry">
            <mxPoint x="925" y="770" as="targetPoint" />
          </mxGeometry>
        </mxCell>
        <mxCell id="F9InCecKEHfJbYSXSyen-43" value="&lt;font color=&quot;#000000&quot;&gt;&lt;span style=&quot;font-size: 12px&quot;&gt;rdata(1)&lt;/span&gt;&lt;/font&gt;" style="rounded=0;whiteSpace=wrap;html=1;labelBorderColor=none;fontSize=14;fontColor=#A680B8;fillColor=none;dashed=1;dashPattern=1 1;" vertex="1" parent="1">
          <mxGeometry x="900" y="820" width="50" height="20" as="geometry" />
        </mxCell>
        <mxCell id="F9InCecKEHfJbYSXSyen-47" style="edgeStyle=orthogonalEdgeStyle;rounded=0;orthogonalLoop=1;jettySize=auto;html=1;fontSize=40;fontColor=#004C99;" edge="1" parent="1" source="F9InCecKEHfJbYSXSyen-45" target="F9InCecKEHfJbYSXSyen-46">
          <mxGeometry relative="1" as="geometry" />
        </mxCell>
        <mxCell id="F9InCecKEHfJbYSXSyen-45" value="&lt;font color=&quot;#000000&quot;&gt;&lt;span style=&quot;font-size: 12px&quot;&gt;raddr(1)&lt;/span&gt;&lt;/font&gt;" style="rounded=0;whiteSpace=wrap;html=1;labelBorderColor=none;fontSize=14;fontColor=#A680B8;fillColor=none;dashed=1;dashPattern=1 1;" vertex="1" parent="1">
          <mxGeometry x="950" y="820" width="50" height="20" as="geometry" />
        </mxCell>
        <mxCell id="F9InCecKEHfJbYSXSyen-46" value="&lt;font color=&quot;#000000&quot;&gt;&lt;span style=&quot;font-size: 12px&quot;&gt;raddr(1)&lt;/span&gt;&lt;/font&gt;" style="rounded=0;whiteSpace=wrap;html=1;labelBorderColor=none;fontSize=14;fontColor=#A680B8;fillColor=none;dashed=1;dashPattern=1 1;" vertex="1" parent="1">
          <mxGeometry x="950" y="940" width="50" height="20" as="geometry" />
        </mxCell>
        <mxCell id="F9InCecKEHfJbYSXSyen-56" style="edgeStyle=orthogonalEdgeStyle;rounded=0;orthogonalLoop=1;jettySize=auto;html=1;exitX=0;exitY=0;exitDx=0;exitDy=0;fontSize=40;fontColor=#004C99;" edge="1" parent="1" target="F9InCecKEHfJbYSXSyen-58">
          <mxGeometry relative="1" as="geometry">
            <mxPoint x="905" y="750" as="sourcePoint" />
            <mxPoint x="950" y="370" as="targetPoint" />
            <Array as="points">
              <mxPoint x="905" y="640" />
              <mxPoint x="860" y="640" />
              <mxPoint x="860" y="430" />
              <mxPoint x="945" y="430" />
            </Array>
          </mxGeometry>
        </mxCell>
        <mxCell id="F9InCecKEHfJbYSXSyen-61" style="edgeStyle=orthogonalEdgeStyle;rounded=0;orthogonalLoop=1;jettySize=auto;html=1;exitX=0;exitY=0.5;exitDx=0;exitDy=0;entryX=1;entryY=0.5;entryDx=0;entryDy=0;fontSize=40;fontColor=#004C99;" edge="1" parent="1" source="F9InCecKEHfJbYSXSyen-57" target="F9InCecKEHfJbYSXSyen-58">
          <mxGeometry relative="1" as="geometry" />
        </mxCell>
        <mxCell id="F9InCecKEHfJbYSXSyen-57" value="&lt;span style=&quot;color: rgb(0 , 0 , 0) ; font-size: 12px&quot;&gt;VWBSel&lt;/span&gt;" style="rounded=0;whiteSpace=wrap;html=1;labelBorderColor=none;fontSize=14;fontColor=#A680B8;fillColor=none;dashed=1;dashPattern=1 1;" vertex="1" parent="1">
          <mxGeometry x="1111.25" y="350" width="50" height="20" as="geometry" />
        </mxCell>
        <mxCell id="F9InCecKEHfJbYSXSyen-59" style="edgeStyle=orthogonalEdgeStyle;rounded=0;orthogonalLoop=1;jettySize=auto;html=1;entryX=0.4;entryY=1;entryDx=0;entryDy=0;entryPerimeter=0;fontSize=40;fontColor=#004C99;" edge="1" parent="1" source="F9InCecKEHfJbYSXSyen-58" target="F9InCecKEHfJbYSXSyen-13">
          <mxGeometry relative="1" as="geometry" />
        </mxCell>
        <mxCell id="F9InCecKEHfJbYSXSyen-58" value="&lt;span style=&quot;color: rgb(0 , 0 , 0) ; font-size: 12px&quot;&gt;Mux&lt;/span&gt;" style="rounded=0;whiteSpace=wrap;html=1;labelBorderColor=none;fontSize=14;fontColor=#A680B8;fillColor=none;dashed=1;dashPattern=1 1;" vertex="1" parent="1">
          <mxGeometry x="930" y="350" width="50" height="20" as="geometry" />
        </mxCell>
        <mxCell id="F9InCecKEHfJbYSXSyen-62" value="&lt;font color=&quot;#000000&quot;&gt;&lt;span style=&quot;font-size: 12px&quot;&gt;32bits&lt;/span&gt;&lt;/font&gt;" style="rounded=0;whiteSpace=wrap;html=1;labelBorderColor=none;fontSize=14;fontColor=#A680B8;fillColor=none;dashed=1;dashPattern=1 1;" vertex="1" parent="1">
          <mxGeometry x="865" y="750" width="40" height="20" as="geometry" />
        </mxCell>
        <mxCell id="F9InCecKEHfJbYSXSyen-63" value="&lt;font color=&quot;#000000&quot;&gt;&lt;span style=&quot;font-size: 12px&quot;&gt;32bits&lt;/span&gt;&lt;/font&gt;" style="rounded=0;whiteSpace=wrap;html=1;labelBorderColor=none;fontSize=14;fontColor=#A680B8;fillColor=none;dashed=1;dashPattern=1 1;" vertex="1" parent="1">
          <mxGeometry x="905" y="750" width="40" height="20" as="geometry" />
        </mxCell>
        <mxCell id="F9InCecKEHfJbYSXSyen-68" style="edgeStyle=orthogonalEdgeStyle;rounded=0;orthogonalLoop=1;jettySize=auto;html=1;entryX=0.75;entryY=0;entryDx=0;entryDy=0;fontSize=12;fontColor=#004C99;" edge="1" parent="1" source="F9InCecKEHfJbYSXSyen-64" target="b0hiGt_KXSGvF1g9S41a-152">
          <mxGeometry relative="1" as="geometry">
            <Array as="points">
              <mxPoint x="993" y="740" />
              <mxPoint x="838" y="740" />
            </Array>
          </mxGeometry>
        </mxCell>
        <mxCell id="F9InCecKEHfJbYSXSyen-64" value="&lt;font color=&quot;#000000&quot;&gt;&lt;span style=&quot;font-size: 12px&quot;&gt;32bits&lt;/span&gt;&lt;/font&gt;" style="rounded=0;whiteSpace=wrap;html=1;labelBorderColor=none;fontSize=14;fontColor=#A680B8;fillColor=none;dashed=1;dashPattern=1 1;" vertex="1" parent="1">
          <mxGeometry x="973" y="617.5" width="40" height="20" as="geometry" />
        </mxCell>
        <mxCell id="F9InCecKEHfJbYSXSyen-75" style="edgeStyle=orthogonalEdgeStyle;rounded=0;orthogonalLoop=1;jettySize=auto;html=1;fontSize=12;fontColor=#004C99;entryX=0.5;entryY=0;entryDx=0;entryDy=0;" edge="1" parent="1" source="F9InCecKEHfJbYSXSyen-65" target="F9InCecKEHfJbYSXSyen-70">
          <mxGeometry relative="1" as="geometry">
            <Array as="points">
              <mxPoint x="1033" y="660" />
              <mxPoint x="1090" y="660" />
              <mxPoint x="1090" y="800" />
              <mxPoint x="1155" y="800" />
            </Array>
          </mxGeometry>
        </mxCell>
        <mxCell id="F9InCecKEHfJbYSXSyen-65" value="&lt;font color=&quot;#000000&quot;&gt;&lt;span style=&quot;font-size: 12px&quot;&gt;32bits&lt;/span&gt;&lt;/font&gt;" style="rounded=0;whiteSpace=wrap;html=1;labelBorderColor=none;fontSize=14;fontColor=#A680B8;fillColor=none;dashed=1;dashPattern=1 1;" vertex="1" parent="1">
          <mxGeometry x="1013" y="617.5" width="40" height="20" as="geometry" />
        </mxCell>
        <mxCell id="F9InCecKEHfJbYSXSyen-69" value="&lt;font color=&quot;#000000&quot;&gt;&lt;span style=&quot;font-size: 12px&quot;&gt;wdata(1)&lt;/span&gt;&lt;/font&gt;" style="rounded=0;whiteSpace=wrap;html=1;labelBorderColor=none;fontSize=14;fontColor=#A680B8;fillColor=none;dashed=1;dashPattern=1 1;" vertex="1" parent="1">
          <mxGeometry x="1130" y="940" width="50" height="20" as="geometry" />
        </mxCell>
        <mxCell id="F9InCecKEHfJbYSXSyen-72" style="edgeStyle=orthogonalEdgeStyle;rounded=0;orthogonalLoop=1;jettySize=auto;html=1;fontSize=12;fontColor=#004C99;" edge="1" parent="1" source="F9InCecKEHfJbYSXSyen-70" target="F9InCecKEHfJbYSXSyen-69">
          <mxGeometry relative="1" as="geometry" />
        </mxCell>
        <mxCell id="F9InCecKEHfJbYSXSyen-70" value="&lt;font color=&quot;#000000&quot;&gt;&lt;span style=&quot;font-size: 12px&quot;&gt;wdata(1)&lt;/span&gt;&lt;/font&gt;" style="rounded=0;whiteSpace=wrap;html=1;labelBorderColor=none;fontSize=14;fontColor=#A680B8;fillColor=none;dashed=1;dashPattern=1 1;" vertex="1" parent="1">
          <mxGeometry x="1130" y="820" width="50" height="20" as="geometry" />
        </mxCell>
        <mxCell id="F9InCecKEHfJbYSXSyen-73" value="&lt;font color=&quot;#000000&quot;&gt;&lt;span style=&quot;font-size: 12px&quot;&gt;waddr(1)&lt;/span&gt;&lt;/font&gt;" style="rounded=0;whiteSpace=wrap;html=1;labelBorderColor=none;fontSize=14;fontColor=#A680B8;fillColor=none;dashed=1;dashPattern=1 1;" vertex="1" parent="1">
          <mxGeometry x="1080" y="940" width="50" height="20" as="geometry" />
        </mxCell>
        <mxCell id="F9InCecKEHfJbYSXSyen-76" style="edgeStyle=orthogonalEdgeStyle;rounded=0;orthogonalLoop=1;jettySize=auto;html=1;fontSize=12;fontColor=#004C99;" edge="1" parent="1" source="F9InCecKEHfJbYSXSyen-74" target="F9InCecKEHfJbYSXSyen-73">
          <mxGeometry relative="1" as="geometry" />
        </mxCell>
        <mxCell id="F9InCecKEHfJbYSXSyen-74" value="&lt;font color=&quot;#000000&quot;&gt;&lt;span style=&quot;font-size: 12px&quot;&gt;waddr(1)&lt;/span&gt;&lt;/font&gt;" style="rounded=0;whiteSpace=wrap;html=1;labelBorderColor=none;fontSize=14;fontColor=#A680B8;fillColor=none;dashed=1;dashPattern=1 1;" vertex="1" parent="1">
          <mxGeometry x="1080" y="820" width="50" height="20" as="geometry" />
        </mxCell>
      </root>
    </mxGraphModel>
  </diagram>
</mxfile>
